<svg xmlns="http://www.w3.org/2000/svg" width="682.667" height="682.667" version="1.0" viewBox="0 0 512 512"><g fill="#443C40"><path d="M234.7 2C151.4 9.5 77.9 55.9 36.1 127.5 19.5 155.8 9 185.8 3.9 219.2c-3.1 20.4-3.1 53.2 0 73.6 5.1 33.4 15.6 63.4 32.2 91.7 39.1 66.9 105.5 111.8 183.1 123.6 20.4 3.1 53.2 3.1 73.6 0 103-15.7 184.1-89 210.2-189.8 5.4-20.6 7.3-37.2 7.3-62.3 0-18.1-.4-25.3-2.2-36.8-15.7-103-89-184.1-189.8-210.2-23.7-6.2-59.5-9.2-83.6-7m41.8 92c36.5 2.5 61.4 9.3 80.6 22.2 21.8 14.5 32.9 34.4 32.9 58.7 0 20.8-6.9 35.3-22.5 47.8-16.1 12.9-42.1 21.7-70.7 23.9-4.9.4-8.8 1-8.8 1.3 0 .4 6 1.2 13.3 1.9 38.5 3.5 67 14.7 86.3 33.7 13 12.8 18.5 26.8 18.5 47.1 0 21.5-6.2 38-19.6 52.3-13 13.7-28.6 22.3-50.9 28.1-27.4 7-48.2 8.2-138.1 7.8l-70-.3v-7l13.8-3.5 13.7-3.5v-297l-13.7-3.5c-12.5-3.2-13.8-3.7-14.1-5.8-.8-5.5-4.7-5.2 67.5-5.2 36.7 0 73.6.5 81.8 1"/><path d="M232 173.6v68.6l15.8-.4c13.7-.4 16.6-.8 22.6-3.1 16.6-6.2 29.8-20.2 36.1-38.4 11.9-34.2-1.3-73.9-29.6-88.8-9-4.7-17.7-6.5-32.6-6.5H232zM232 330.5v76.7l21.3-.5c14.8-.3 22.8-1 26.7-2.1 16.8-4.8 30.5-16.5 38.3-32.7 5.6-11.7 7.8-21 8.4-36.4 1.7-39.9-14.1-68.3-43.7-78.6-5.8-2-8.9-2.3-28.7-2.7l-22.3-.4z"/></g><path d="m201.805 557.794-31.848-.289.25-4.291.252-4.291 18.085-4.626 18.085-4.626-.002-198.326-.002-198.326-15.588-4.012c-19.263-4.958-20.628-5.51-21.236-8.58-.751-3.8.843-4.611 10.786-5.485 11.846-1.042 177.497-.183 191.928.995 57.582 4.7 93.155 17.231 119.2 41.993 12.697 12.07 20.593 25.257 25.164 42.025 2.478 9.092 3.106 30.922 1.183 41.14-2.99 15.889-9.556 27.805-21.78 39.527-8.547 8.194-15.751 13.182-27.333 18.922-19.193 9.511-40.173 15.308-65.252 18.03-17.517 1.9-19.036 2.133-19.57 2.998-.267.43-.352.783-.19.783 2.363 0 38.675 4.543 43.873 5.49 20.454 3.721 38.482 9.493 54.464 17.435 25.752 12.798 45.286 31.724 52.768 51.124 4.747 12.31 5.357 16.25 5.399 34.879.041 18.31-.877 25.087-5 36.889-8.29 23.727-27.752 44.625-53.922 57.898-23.91 12.128-54.771 19.021-96.947 21.655-14.388.899-128.23 1.565-182.767 1.07zm155.254-16.17c14.336-.97 20.018-2.376 30.423-7.533 19.964-9.896 34.728-27.856 42.798-52.064 7.936-23.805 7.597-60.707-.788-85.814-8.685-26.008-27.546-45.498-52.185-53.927-7.105-2.43-16.533-3.25-44.497-3.868l-23.905-.528v205.528l17.67-.465c9.717-.255 23.435-.854 30.484-1.33m-4.534-220.679c7.225-1.52 20.743-8.07 27.956-13.548 21.444-16.285 34.025-43.998 34.025-74.953 0-46.665-27.588-84.534-66.348-91.075-4.088-.69-14.119-1.32-23.039-1.449l-15.799-.227-.211 91.804-.212 91.805 18.92-.57c11.142-.336 21.3-1.07 24.708-1.787" style="fill:#f9f4ef;stroke-width:.831506" transform="scale(.75)"/></svg>